<?xml version="1.0" encoding="UTF-8" standalone="no"?>
<svg style="enable-background:new" xmlns="http://www.w3.org/2000/svg" height="1024" width="1024" version="1.1" xmlns:xlink="http://www.w3.org/1999/xlink" viewBox="0 0 1024 1024">
 <defs>
  <linearGradient id="e" y2="256" xlink:href="#a" gradientUnits="userSpaceOnUse" x2="320" gradientTransform="matrix(1.008 0 0 1.008 237.2 239)" y1="392" x1="320"/>
  <linearGradient id="a">
   <stop stop-color="#eaeaea" offset="0"/>
   <stop stop-color="#f8f8f8" offset="1"/>
  </linearGradient>
  <linearGradient id="d" y2="208" xlink:href="#a" gradientUnits="userSpaceOnUse" x2="188.8" gradientTransform="matrix(1.008 0 0 1.008 237.2 239)" y1="392" x1="188.8"/>
  <linearGradient id="c" y2="180" xlink:href="#a" gradientUnits="userSpaceOnUse" x2="392" gradientTransform="matrix(0 -.8737 .8737 0 454.9 734.7)" y1="180" x1="272"/>
  <linearGradient id="b" y2="300.7" gradientUnits="userSpaceOnUse" x2="193.3" gradientTransform="matrix(1.008 0 0 1.008 237.2 257.1)" y1="325.2" x1="235.6">
   <stop offset="0"/>
   <stop stop-opacity="0" offset="1"/>
  </linearGradient>
 </defs>
 <path style="color:#000000;enable-background:accumulate" d="m388.8 582.7h165.9l40 64.52h-237.9z" fill-opacity=".9961" stroke-width=".6844" fill="#8cc24c"/>
 <path opacity=".7170" style="color:#000000;enable-background:accumulate" d="m616.2 399.3c28.95 0 52.42 23.47 52.42 52.42s-23.47 52.42-52.42 52.42-52.42-23.47-52.42-52.42 23.47-52.42 52.42-52.42z" stroke-width="1.008" fill="#fcc942"/>
 <path style="color:#000000;enable-background:accumulate" stroke-width="1.008" fill="url(#c)" d="m618.2 392.2c28.95 0 52.42 23.47 52.42 52.42s-23.47 52.42-52.42 52.42-52.42-23.47-52.42-52.42 23.47-52.42 52.42-52.42z"/>
 <path style="color:#000000;enable-background:accumulate" stroke-width="1.008" fill="url(#d)" d="m358.1 634.2 96.78-185.5 96.78 185.5z"/>
 <path style="color:#000000;enable-background:accumulate" stroke-width="1.008" fill="url(#e)" d="m449 634.2 71.53-137.1 71.54 137.1z"/>
 <path opacity=".05" style="color:#000000;enable-background:accumulate" d="m454.9 448.7-96.78 185.5h90.82l51.37-98.46-45.41-87.03z" stroke-width="1.008" fill="url(#b)"/>
 <g fill-opacity=".08118" transform="matrix(.6592 0 0 .6592 342.6 -22.23)" stroke="#00f" display="none" fill="#00f">
  <path d="m166 576.4h179.9c145.3 0 166 20.74 166 165.9v144.2c0 145.2-20.76 165.9-166 165.9h-179.9c-145.2 0-166-20-166-165.6v-144.2c0-145.1 20.76-165.9 166-165.9z" display="inline"/>
  <circle style="color:#000000;enable-background:accumulate" cx="256" transform="matrix(1.2 0 0 1.2 -51.2 528.8)" display="inline" cy="238" r="120" stroke-width=".8333"/>
  <rect stroke-linejoin="round" style="color:#000000;enable-background:accumulate" display="inline" height="272" width="272" stroke-linecap="round" y="678.4" x="120"/>
  <rect stroke-linejoin="round" style="color:#000000;enable-background:accumulate" display="inline" height="240" width="304" stroke-linecap="round" y="694.4" x="104"/>
  <rect stroke-linejoin="round" style="color:#000000;enable-background:accumulate" display="inline" height="304" width="240" stroke-linecap="round" y="662.4" x="136"/>
 </g>
</svg>
